<svg width="281" height="100" viewBox="0 0 281 100" fill="none" xmlns="http://www.w3.org/2000/svg">
<path d="M1.41593 84.1447C-1.1436 79.9023 6.91038 64.5034 59.6025 36.8478C96.289 21.7306 152.087 -0.667333 137.412 30.4008C124.785 42.7391 81.6144 83.5889 65.5747 95.427C59.6025 99.9289 46.6342 103.764 69.4993 83.311C90.9993 66.2486 152.599 26.4547 147.309 44.1285C145.261 47.5966 130.075 65.8781 122.737 74.5853C136.673 62.3581 163.963 40.3159 161.642 49.9642C160.414 53.3878 154.419 63.1733 151.575 67.638C158.343 60.0609 171.88 36.1253 171.88 1C171.198 2.55618 151.745 71.6396 156.694 74.5853C161.642 71.6952 187.92 33.402 174.781 41.6831C169.321 45.5958 166.704 74.8076 166.079 88.9244C155.784 78.0311 116.185 56.0556 40.1501 55.2997C30.5945 55.522 26.4993 56.8003 40.1501 58.5232C41.7818 59.2458 102.944 57.0782 280.404 47.7411" stroke="black"/>
</svg>
